<?xml version="1.0" encoding="UTF-8"?>
<svg id="Layer_1" xmlns="http://www.w3.org/2000/svg" version="1.1" viewBox="0 0 42.4 42.4">
  <!-- Generator: Adobe Illustrator 29.4.0, SVG Export Plug-In . SVG Version: 2.1.0 Build 152)  -->
  <defs>
    <style>
      .st0 {
        fill: #209de1;
        fill-rule: evenodd;
      }
    </style>
  </defs>
  <polygon class="st0" points="17.6 16.7 17.6 16.7 17.6 16.7 17.6 16.7"/>
  <path class="st0" d="M40,18c-.7-1.1-1-2.2-.9-3.5.2-2.3-1.1-4.5-3.2-5.5-1.2-.5-2-1.4-2.6-2.6-1-2.1-3.2-3.4-5.5-3.2-1.3.1-2.4-.2-3.5-.9-1.9-1.3-4.4-1.3-6.3,0-1.1.7-2.2,1-3.5.9-2.3-.2-4.5,1.1-5.5,3.2-.5,1.2-1.4,2-2.6,2.6-2.1,1-3.4,3.2-3.2,5.5.1,1.3-.2,2.4-.9,3.5-1.3,1.9-1.3,4.4,0,6.3.7,1.1,1,2.2.9,3.5-.2,2.3,1.1,4.5,3.2,5.5,1.2.5,2,1.4,2.6,2.6,1,2.1,3.2,3.4,5.5,3.2,1.3-.1,2.4.2,3.5.9,1.9,1.3,4.4,1.3,6.3,0,1.1-.7,2.2-1,3.5-.9,2.3.2,4.5-1.1,5.5-3.2.5-1.2,1.4-2,2.6-2.6,2.1-1,3.4-3.2,3.2-5.5-.1-1.3.2-2.4.9-3.5,1.3-1.9,1.3-4.4,0-6.3ZM23.4,18.6l-2.2-7-2.2,7h-7.3l5.9,4.3-2.2,7,5.9-4.4,9.5,9.5-9.5-7.1-9.5,7.1,3.7-11.4-9.6-7h11.8,0s3.6-11.4,3.6-11.4l3.6,11.4h11.8l-13.2,2Z"/>
</svg>